<svg width="44" height="48" fill="none" xmlns="http://www.w3.org/2000/svg"><path opacity=".5" d="M34.5 29.413L25.07 24l9.432-5.09L37.985 10l-11.492 7L15 24l11.493 7 11.492 7-3.484-8.587z" fill="url(#paint0_linear)"/><path opacity=".5" d="M42.672 24l-7.46 2.977L30 24l5.211-2.978L42.672 24z" fill="url(#paint1_linear)"/><g filter="url(#filter0_f)"><path fill-rule="evenodd" clip-rule="evenodd" d="M15.069 24l9.431 5.413L27.985 38l-11.492-7L5 24l11.493-7 11.492-7-3.485 8.91L15.07 24zm11.47 2.977L34 24l-7.461-2.978L21.328 24l5.21 2.977z" fill="#9794C6"/></g><g filter="url(#filter1_d)"><path fill-rule="evenodd" clip-rule="evenodd" d="M15.069 24l9.431 5.413L27.985 38l-11.492-7L5 24l11.493-7 11.492-7-3.485 8.91L15.07 24zm11.47 2.977L34 24l-7.461-2.978L21.328 24l5.21 2.977z" fill="url(#paint2_linear)"/></g><defs><linearGradient id="paint0_linear" x1="15" y1="24" x2="37.985" y2="24" gradientUnits="userSpaceOnUse"><stop stop-color="#9794C6"/><stop offset="1" stop-color="#9794C6" stop-opacity="0"/></linearGradient><linearGradient id="paint1_linear" x1="30" y1="24" x2="42.672" y2="24" gradientUnits="userSpaceOnUse"><stop stop-color="#9794C6"/><stop offset="1" stop-color="#9794C6" stop-opacity="0"/></linearGradient><linearGradient id="paint2_linear" x1="5" y1="24" x2="34" y2="24" gradientUnits="userSpaceOnUse"><stop stop-color="#F5EDFF"/><stop offset="1" stop-color="#CABDDB"/></linearGradient><filter id="filter0_f" x="-5" y="0" width="49" height="48" filterUnits="userSpaceOnUse" color-interpolation-filters="sRGB"><feFlood flood-opacity="0" result="BackgroundImageFix"/><feBlend in="SourceGraphic" in2="BackgroundImageFix" result="shape"/><feGaussianBlur stdDeviation="5" result="effect1_foregroundBlur"/></filter><filter id="filter1_d" x="1" y="7" width="37" height="36" filterUnits="userSpaceOnUse" color-interpolation-filters="sRGB"><feFlood flood-opacity="0" result="BackgroundImageFix"/><feColorMatrix in="SourceAlpha" values="0 0 0 0 0 0 0 0 0 0 0 0 0 0 0 0 0 0 127 0" result="hardAlpha"/><feOffset dy="1"/><feGaussianBlur stdDeviation="2"/><feColorMatrix values="0 0 0 0 0 0 0 0 0 0 0 0 0 0 0 0 0 0 0.5 0"/><feBlend in2="BackgroundImageFix" result="effect1_dropShadow"/><feBlend in="SourceGraphic" in2="effect1_dropShadow" result="shape"/></filter></defs></svg>