<svg width="8" height="15" fill="none" xmlns="http://www.w3.org/2000/svg"><path d="M5.453 10.188c0-.428-.12-.766-.36-1.016-.234-.255-.635-.49-1.202-.703a14.887 14.887 0 01-1.47-.633 4.947 4.947 0 01-1.062-.727 3.04 3.04 0 01-.687-.968C.51 5.77.43 5.33.43 4.82c0-.88.28-1.602.843-2.165.563-.562 1.31-.89 2.243-.984V0h1.25v1.695c.921.13 1.643.516 2.164 1.157.52.635.78 1.46.78 2.476H5.454c0-.625-.13-1.091-.39-1.398-.256-.313-.6-.47-1.032-.47-.427 0-.758.123-.992.368-.234.24-.352.573-.352 1 0 .396.115.714.344.953.23.24.654.485 1.274.735.625.25 1.138.487 1.539.71.4.22.74.47 1.015.75.276.277.487.594.633.954.146.354.219.768.219 1.242 0 .885-.276 1.604-.828 2.156-.552.552-1.313.878-2.281.977v1.554H3.359v-1.546c-1.067-.115-1.895-.493-2.484-1.133C.292 11.534 0 10.677 0 9.61h2.258c0 .62.146 1.096.437 1.43.297.327.722.491 1.274.491.458 0 .82-.12 1.086-.36.265-.244.398-.572.398-.983z" fill="#21CC14"/></svg>