<svg width="40" height="40" fill="none" xmlns="http://www.w3.org/2000/svg"><path opacity=".2" stroke="#9794C6" d="M20 8.707L33.293 22 20 35.293 6.707 22z"/><g filter="url(#filter0_f)"><path d="M29.75 19.766a.954.954 0 00-.079-1.365l-8.938-7.82a1.114 1.114 0 00-1.453.016l-8.969 8.221a.948.948 0 00-.043 1.363l.225.234c.373.388.976.435 1.346.103l.67-.6v8.788c0 .539.437.975.976.975h3.496a.975.975 0 00.975-.975v-6.148h4.46v6.148c-.008.538.377.975.916.975h3.705a.975.975 0 00.976-.976v-8.663l.413.362c.228.2.707.04 1.07-.359l.253-.28z" fill="#9794C6"/></g><g filter="url(#filter1_d)"><path d="M29.75 19.766a.954.954 0 00-.079-1.365l-8.938-7.82a1.114 1.114 0 00-1.453.016l-8.969 8.221a.948.948 0 00-.043 1.363l.225.234c.373.388.976.435 1.346.103l.67-.6v8.788c0 .539.437.975.976.975h3.496a.975.975 0 00.975-.975v-6.148h4.46v6.148c-.008.538.377.975.916.975h3.705a.975.975 0 00.976-.976v-8.663l.413.362c.228.2.707.04 1.07-.359l.253-.28z" fill="url(#paint0_linear)"/></g><defs><filter id="filter0_f" x="0" y=".319" width="40" height="39.362" filterUnits="userSpaceOnUse" color-interpolation-filters="sRGB"><feFlood flood-opacity="0" result="BackgroundImageFix"/><feBlend in="SourceGraphic" in2="BackgroundImageFix" result="shape"/><feGaussianBlur stdDeviation="5" result="effect1_foregroundBlur"/></filter><filter id="filter1_d" x="6" y="7.319" width="28" height="27.362" filterUnits="userSpaceOnUse" color-interpolation-filters="sRGB"><feFlood flood-opacity="0" result="BackgroundImageFix"/><feColorMatrix in="SourceAlpha" values="0 0 0 0 0 0 0 0 0 0 0 0 0 0 0 0 0 0 127 0" result="hardAlpha"/><feOffset dy="1"/><feGaussianBlur stdDeviation="2"/><feColorMatrix values="0 0 0 0 0 0 0 0 0 0 0 0 0 0 0 0 0 0 0.5 0"/><feBlend in2="BackgroundImageFix" result="effect1_dropShadow"/><feBlend in="SourceGraphic" in2="effect1_dropShadow" result="shape"/></filter><linearGradient id="paint0_linear" x1="20" y1="10.319" x2="20" y2="29.681" gradientUnits="userSpaceOnUse"><stop stop-color="#F5EDFF"/><stop offset="1" stop-color="#CABDDB"/></linearGradient></defs></svg>